<svg width="24" height="27" viewBox="0 0 24 27" fill="none" xmlns="http://www.w3.org/2000/svg">
<path d="M9.2341 18.7779H2.42854V25.5835M14.6785 7.88905H21.4841V1.0835M1.86096 9.25425C2.62427 7.36563 3.90204 5.729 5.54907 4.53033C7.1961 3.33166 9.14633 2.61904 11.1782 2.47343C13.21 2.32782 15.2419 2.75508 17.043 3.70664C18.8441 4.6582 20.3422 6.09591 21.367 7.85639M22.053 17.4127C21.2899 19.3017 20.0121 20.9387 18.365 22.1376C16.7178 23.3365 14.7673 24.0493 12.7352 24.1949C10.7032 24.3406 8.67097 23.9132 6.86969 22.9613C5.06841 22.0095 3.57028 20.5715 2.5456 18.8106" stroke="white" stroke-width="2" stroke-linecap="round" stroke-linejoin="round"/>
</svg>
